<svg xmlns="http://www.w3.org/2000/svg" viewBox="0 0 1080.97 578.82"><defs><style>.cls-1{fill:#a7d0db;}.cls-2{fill:#eb8257;}.cls-3{fill:#edf0e2;}</style></defs><g id="Layer_2" data-name="Layer 2"><g id="Layer_9" data-name="Layer 9"><polyline class="cls-1" points="1056.84 560.56 1034.93 578.82 1056.84 578.82"/><polygon class="cls-2" points="1034.93 578.82 1056.84 560.56 1034.93 560.56 1013.02 578.82 1034.93 578.82"/><polygon class="cls-3" points="1013.02 578.82 1034.93 560.56 1013.02 560.56 991.11 578.82 1013.02 578.82"/><polyline class="cls-1" points="991.11 578.82 1013.02 560.56 991.11 560.56"/><polyline class="cls-1" points="991.11 560.56 969.2 578.82 991.11 578.82"/><polygon class="cls-2" points="969.2 578.82 991.11 560.56 969.2 560.56 947.29 578.82 969.2 578.82"/><polygon class="cls-3" points="947.29 578.82 969.2 560.56 947.29 560.56 925.38 578.82 947.29 578.82"/><polyline class="cls-1" points="925.38 578.82 947.29 560.56 925.38 560.56"/><polyline class="cls-1" points="925.38 560.56 903.47 578.82 925.38 578.82"/><polygon class="cls-2" points="903.47 578.82 925.38 560.56 903.47 560.56 881.56 578.82 903.47 578.82"/><polygon class="cls-3" points="881.56 578.82 903.47 560.56 881.56 560.56 859.65 578.82 881.56 578.82"/><polyline class="cls-1" points="859.65 578.82 881.56 560.56 859.65 560.56"/><polyline class="cls-1" points="859.65 560.56 837.74 578.82 859.65 578.82"/><polygon class="cls-2" points="837.74 578.82 859.65 560.56 837.74 560.56 815.83 578.82 837.74 578.82"/><polygon class="cls-3" points="815.83 578.82 837.74 560.56 815.83 560.56 793.92 578.82 815.83 578.82"/><polyline class="cls-1" points="793.92 578.82 815.83 560.56 793.92 560.56"/><polyline class="cls-1" points="793.92 560.56 772.01 578.82 793.92 578.82"/><polygon class="cls-2" points="772.01 578.82 793.92 560.56 772.01 560.56 750.1 578.82 772.01 578.82"/><polygon class="cls-3" points="750.1 578.82 772.01 560.56 750.1 560.56 728.19 578.82 750.1 578.82"/><polyline class="cls-1" points="728.19 578.82 750.1 560.56 728.19 560.56"/><polyline class="cls-1" points="728.19 560.56 706.28 578.82 728.19 578.82"/><polygon class="cls-2" points="706.28 578.82 728.19 560.56 706.28 560.56 684.37 578.82 706.28 578.82"/><polygon class="cls-3" points="684.37 578.82 706.28 560.56 684.37 560.56 662.46 578.82 684.37 578.82"/><polyline class="cls-1" points="662.46 578.82 684.37 560.56 662.46 560.56"/><polyline class="cls-1" points="662.46 560.56 640.55 578.82 662.46 578.82"/><polygon class="cls-2" points="640.55 578.82 662.46 560.56 640.55 560.56 618.64 578.82 640.55 578.82"/><polygon class="cls-3" points="618.64 578.82 640.55 560.56 618.64 560.56 596.73 578.82 618.64 578.82"/><polyline class="cls-1" points="596.73 578.82 618.64 560.56 596.73 560.56"/><polyline class="cls-1" points="596.73 560.56 574.82 578.82 596.73 578.82"/><polygon class="cls-2" points="574.82 578.82 596.73 560.56 574.82 560.56 552.91 578.82 574.82 578.82"/><polygon class="cls-3" points="552.91 578.82 574.82 560.56 552.91 560.56 531 578.82 552.91 578.82"/><polyline class="cls-1" points="531 578.82 552.91 560.56 531 560.56"/><polyline class="cls-1" points="531 560.56 509.09 578.82 531 578.82"/><polygon class="cls-2" points="509.09 578.82 531 560.56 509.09 560.56 487.18 578.82 509.09 578.82"/><polygon class="cls-3" points="487.18 578.82 509.09 560.56 487.18 560.56 465.27 578.82 487.18 578.82"/><polyline class="cls-1" points="465.27 578.82 487.18 560.56 465.27 560.56"/><polyline class="cls-1" points="465.27 560.56 443.36 578.82 465.27 578.82"/><polygon class="cls-2" points="443.36 578.82 465.27 560.56 443.36 560.56 421.45 578.82 443.36 578.82"/><polygon class="cls-3" points="421.45 578.82 443.36 560.56 421.45 560.56 399.54 578.82 421.45 578.82"/><polyline class="cls-1" points="399.54 578.82 421.45 560.56 399.54 560.56"/><polyline class="cls-1" points="399.54 560.56 377.63 578.82 399.54 578.82"/><polygon class="cls-2" points="377.63 578.82 399.54 560.56 377.63 560.56 355.72 578.82 377.63 578.82"/><polygon class="cls-3" points="355.72 578.82 377.63 560.56 355.72 560.56 333.81 578.82 355.72 578.82"/><polyline class="cls-1" points="333.81 578.82 355.72 560.56 333.81 560.56"/><polyline class="cls-1" points="333.81 560.56 311.9 578.82 333.81 578.82"/><polygon class="cls-2" points="311.9 578.82 333.81 560.56 311.9 560.56 289.99 578.82 311.9 578.82"/><polygon class="cls-3" points="289.99 578.82 311.9 560.56 289.99 560.56 268.08 578.82 289.99 578.82"/><polyline class="cls-1" points="268.08 578.82 289.99 560.56 268.08 560.56"/><polyline class="cls-1" points="268.08 560.56 246.17 578.82 268.08 578.82"/><polygon class="cls-2" points="246.17 578.82 268.08 560.56 246.17 560.56 224.26 578.82 246.17 578.82"/><polygon class="cls-3" points="224.26 578.82 246.17 560.56 224.26 560.56 202.35 578.82 224.26 578.82"/><polyline class="cls-1" points="202.35 578.82 224.26 560.56 202.35 560.56"/><polyline class="cls-1" points="202.35 560.56 180.44 578.82 202.35 578.82"/><polygon class="cls-2" points="180.44 578.82 202.35 560.56 180.44 560.56 158.53 578.82 180.44 578.82"/><polygon class="cls-3" points="158.53 578.82 180.44 560.56 158.53 560.56 136.62 578.82 158.53 578.82"/><polyline class="cls-1" points="136.62 578.82 158.53 560.56 136.62 560.56"/><polyline class="cls-1" points="136.62 560.56 114.71 578.82 136.62 578.82"/><polygon class="cls-2" points="114.71 578.82 136.62 560.56 114.71 560.56 92.8 578.82 114.71 578.82"/><polygon class="cls-3" points="92.8 578.82 114.71 560.56 92.8 560.56 70.89 578.82 92.8 578.82"/><polyline class="cls-1" points="70.89 578.82 92.8 560.56 70.89 560.56"/><polyline class="cls-1" points="70.89 560.56 48.98 578.82 70.89 578.82"/><polygon class="cls-2" points="48.98 578.82 70.89 560.56 48.98 560.56 27.07 578.82 48.98 578.82"/><path class="cls-3" d="M27.07,578.82,49,560.56H27.07l-2.74,2.28a2.54,2.54,0,0,0-.48.55c-.14.18-.29.37-.45.55a9,9,0,0,1-1,1,11.9,11.9,0,0,1-5.87,2.63c-4.68.79-10.69-.89-15.38-5.64a24.13,24.13,0,0,0,19,16.51,20.27,20.27,0,0,0,2.18.27l1.1.06,1,0Z"/><path class="cls-1" d="M1.12,562c4.69,4.75,10.7,6.43,15.38,5.64A11.9,11.9,0,0,0,22.37,565a9,9,0,0,0,1-1c.16-.18.31-.37.45-.55a2.54,2.54,0,0,1,.48-.55l2.74-2.28H24.33a1.59,1.59,0,0,1-.39,0h-.28a3.21,3.21,0,0,1-.53-.07,5.85,5.85,0,0,1-4.6-4"/><path class="cls-1" d="M18.53,556.46a10.42,10.42,0,0,1-1.25-.27,11.23,11.23,0,0,1-1.23-.49,5.91,5.91,0,0,1-2.36-1.9l-4.56-5.48L0,537.37V553.8a33.51,33.51,0,0,0,.19,3.84c.11.73.21,1.46.37,2.18s.35,1.43.56,2.13"/><path class="cls-2" d="M0,537.37l9.13,11,4.56,5.48a5.91,5.91,0,0,0,2.36,1.9,11.23,11.23,0,0,0,1.23.49,10.42,10.42,0,0,0,1.25.27c0-.17-.08-.34-.13-.51s0-.36-.09-.53a4.73,4.73,0,0,1,0-.54c0-.06,0-.64,0-1.08V537.37L0,515.46Z"/><polygon class="cls-3" points="0 515.46 18.25 537.37 18.25 515.46 0 493.55 0 515.46"/><polyline class="cls-1" points="0 493.55 18.25 515.46 18.25 493.55"/><polyline class="cls-1" points="18.25 493.55 0 471.64 0 493.55"/><polygon class="cls-2" points="0 471.64 18.25 493.55 18.25 471.64 0 449.73 0 471.64"/><polygon class="cls-3" points="0 449.73 18.25 471.64 18.25 449.73 0 427.82 0 449.73"/><polyline class="cls-1" points="0 427.82 18.25 449.73 18.25 427.82"/><polyline class="cls-1" points="18.25 427.82 0 405.91 0 427.82"/><polygon class="cls-2" points="0 405.91 18.25 427.82 18.25 405.91 0 384 0 405.91"/><polygon class="cls-3" points="0 384 18.25 405.91 18.25 384 0 362.09 0 384"/><polyline class="cls-1" points="0 362.09 18.25 384 18.25 362.09"/><polyline class="cls-1" points="18.25 362.09 0 340.18 0 362.09"/><polygon class="cls-2" points="0 340.18 18.25 362.09 18.25 340.18 0 318.27 0 340.18"/><polygon class="cls-3" points="0 318.27 18.25 340.18 18.25 318.27 0 296.36 0 318.27"/><polyline class="cls-1" points="0 296.36 18.25 318.27 18.25 296.36"/><polyline class="cls-1" points="18.25 296.36 0 274.45 0 296.36"/><polygon class="cls-2" points="0 274.45 18.25 296.36 18.25 274.45 0 252.54 0 274.45"/><polygon class="cls-3" points="0 252.54 18.25 274.45 18.25 252.54 0 230.63 0 252.54"/><polyline class="cls-1" points="0 230.63 18.25 252.54 18.25 230.63"/><polyline class="cls-1" points="18.25 230.63 0 208.72 0 230.63"/><polygon class="cls-2" points="0 208.72 18.25 230.63 18.25 208.72 0 186.81 0 208.72"/><polygon class="cls-3" points="0 186.81 18.25 208.72 18.25 186.81 0 164.9 0 186.81"/><polyline class="cls-1" points="0 164.9 18.25 186.81 18.25 164.9"/><polyline class="cls-1" points="18.25 164.9 0 142.99 0 164.9"/><polygon class="cls-2" points="0 142.99 18.25 164.9 18.25 142.99 0 121.08 0 142.99"/><polygon class="cls-3" points="0 121.08 18.25 142.99 18.25 121.08 0 99.17 0 121.08"/><polyline class="cls-1" points="0 99.17 18.25 121.08 18.25 99.17"/><polyline class="cls-1" points="18.25 99.17 0 77.26 0 99.17"/><polygon class="cls-2" points="0 77.26 18.25 99.17 18.25 77.26 0 55.35 0 77.26"/><polygon class="cls-3" points="0 55.35 18.25 77.26 18.25 55.35 0 33.44 0 55.35"/><polyline class="cls-1" points="0 33.44 18.25 55.35 18.25 33.44"/><path class="cls-1" d="M18.26,33.44,13.69,28l-2.28-2.74c-.77-.95-1.5-1.73-2.19-2.73C6.56,18.56,5.67,12.37,8,6.17A24.12,24.12,0,0,0,.15,21.5C.07,22.22.05,23,0,23.69l0,.5v9.25"/><path class="cls-2" d="M8,6.17c-2.37,6.2-1.48,12.39,1.18,16.32.69,1,1.42,1.78,2.19,2.73L13.69,28l4.57,5.48V24.19a.39.39,0,0,1,0-.17c0-.18,0-.37,0-.55a5.8,5.8,0,0,1,1.92-3.71,8.87,8.87,0,0,1,.19-5.37,12,12,0,0,1,3.72-5.26L35.08,0H24.13A24.23,24.23,0,0,0,8,6.17Z"/><path class="cls-3" d="M35.08,0,24.13,9.13a12,12,0,0,0-3.72,5.26,8.87,8.87,0,0,0-.19,5.37,6,6,0,0,1,3.91-1.51h11L57,0Z"/><polyline class="cls-1" points="56.99 0 35.08 18.25 56.99 18.25"/><polyline class="cls-1" points="56.99 18.25 78.9 0 56.99 0"/><polygon class="cls-2" points="78.9 0 56.99 18.25 78.9 18.25 100.81 0 78.9 0"/><polygon class="cls-3" points="100.81 0 78.9 18.25 100.81 18.25 122.72 0 100.81 0"/><polyline class="cls-1" points="122.72 0 100.81 18.25 122.72 18.25"/><polyline class="cls-1" points="122.72 18.25 144.63 0 122.72 0"/><polygon class="cls-2" points="144.63 0 122.72 18.25 144.63 18.25 166.54 0 144.63 0"/><polygon class="cls-3" points="166.54 0 144.63 18.25 166.54 18.25 188.45 0 166.54 0"/><polyline class="cls-1" points="188.45 0 166.54 18.25 188.45 18.25"/><polyline class="cls-1" points="188.45 18.25 210.36 0 188.45 0"/><polygon class="cls-2" points="210.36 0 188.45 18.25 210.36 18.25 232.27 0 210.36 0"/><polygon class="cls-3" points="232.27 0 210.36 18.25 232.27 18.25 254.18 0 232.27 0"/><polyline class="cls-1" points="254.18 0 232.27 18.25 254.18 18.25"/><polyline class="cls-1" points="254.18 18.25 276.09 0 254.18 0"/><polygon class="cls-2" points="276.09 0 254.18 18.25 276.09 18.25 298 0 276.09 0"/><polygon class="cls-3" points="298 0 276.09 18.25 298 18.25 319.91 0 298 0"/><polyline class="cls-1" points="319.91 0 298 18.25 319.91 18.25"/><polyline class="cls-1" points="319.91 18.25 341.82 0 319.91 0"/><polygon class="cls-2" points="341.82 0 319.91 18.25 341.82 18.25 363.73 0 341.82 0"/><polygon class="cls-3" points="363.73 0 341.82 18.25 363.73 18.25 385.64 0 363.73 0"/><polyline class="cls-1" points="385.64 0 363.73 18.25 385.64 18.25"/><polyline class="cls-1" points="385.64 18.25 407.55 0 385.64 0"/><polygon class="cls-2" points="407.55 0 385.64 18.25 407.55 18.25 429.46 0 407.55 0"/><polygon class="cls-3" points="429.46 0 407.55 18.25 429.46 18.25 451.37 0 429.46 0"/><polyline class="cls-1" points="451.37 0 429.46 18.25 451.37 18.25"/><polyline class="cls-1" points="451.37 18.25 473.28 0 451.37 0"/><polygon class="cls-2" points="473.28 0 451.37 18.25 473.28 18.25 495.19 0 473.28 0"/><polygon class="cls-3" points="495.19 0 473.28 18.25 495.19 18.25 517.1 0 495.19 0"/><polyline class="cls-1" points="517.1 0 495.19 18.25 517.1 18.25"/><polyline class="cls-1" points="517.1 18.25 539.01 0 517.1 0"/><polygon class="cls-2" points="539.01 0 517.1 18.25 539.01 18.25 560.92 0 539.01 0"/><polygon class="cls-3" points="560.92 0 539.01 18.25 560.92 18.25 582.83 0 560.92 0"/><polyline class="cls-1" points="582.83 0 560.92 18.25 582.83 18.25"/><polyline class="cls-1" points="582.83 18.25 604.74 0 582.83 0"/><polygon class="cls-2" points="604.74 0 582.83 18.25 604.74 18.25 626.65 0 604.74 0"/><polygon class="cls-3" points="626.65 0 604.74 18.25 626.65 18.25 648.56 0 626.65 0"/><polyline class="cls-1" points="648.56 0 626.65 18.25 648.56 18.25"/><polyline class="cls-1" points="648.56 18.25 670.47 0 648.56 0"/><polygon class="cls-2" points="670.47 0 648.56 18.25 670.47 18.25 692.38 0 670.47 0"/><polygon class="cls-3" points="692.38 0 670.47 18.25 692.38 18.25 714.29 0 692.38 0"/><polyline class="cls-1" points="714.29 0 692.38 18.25 714.29 18.25"/><polyline class="cls-1" points="714.29 18.25 736.2 0 714.29 0"/><polygon class="cls-2" points="736.2 0 714.29 18.25 736.2 18.25 758.11 0 736.2 0"/><polygon class="cls-3" points="758.11 0 736.2 18.25 758.11 18.25 780.02 0 758.11 0"/><polyline class="cls-1" points="780.02 0 758.11 18.25 780.02 18.25"/><polyline class="cls-1" points="780.02 18.25 801.93 0 780.02 0"/><polygon class="cls-2" points="801.93 0 780.02 18.25 801.93 18.25 823.84 0 801.93 0"/><polygon class="cls-3" points="823.84 0 801.93 18.25 823.84 18.25 845.75 0 823.84 0"/><polyline class="cls-1" points="845.75 0 823.84 18.25 845.75 18.25"/><polyline class="cls-1" points="845.75 18.25 867.66 0 845.75 0"/><polygon class="cls-2" points="867.66 0 845.75 18.25 867.66 18.25 889.57 0 867.66 0"/><polygon class="cls-3" points="889.57 0 867.66 18.25 889.57 18.25 911.48 0 889.57 0"/><polyline class="cls-1" points="911.48 0 889.57 18.25 911.48 18.25"/><polyline class="cls-1" points="911.48 18.25 933.39 0 911.48 0"/><polygon class="cls-2" points="933.39 0 911.48 18.25 933.39 18.25 955.3 0 933.39 0"/><polygon class="cls-3" points="955.3 0 933.39 18.25 955.3 18.25 977.21 0 955.3 0"/><polyline class="cls-1" points="977.21 0 955.3 18.25 977.21 18.25"/><polyline class="cls-1" points="977.21 18.25 999.12 0 977.21 0"/><polygon class="cls-2" points="999.12 0 977.21 18.25 999.12 18.25 1021.03 0 999.12 0"/><polygon class="cls-3" points="1021.03 0 999.12 18.25 1021.03 18.25 1042.94 0 1021.03 0"/><polyline class="cls-1" points="1042.94 0 1021.03 18.25 1042.94 18.25"/><path class="cls-1" d="M1042.94,18.25l11-9.12,2.74-2.28a16,16,0,0,1,3.48-2,20.11,20.11,0,0,1,9-1.48,24.07,24.07,0,0,0-8.24-3,20.27,20.27,0,0,0-2.18-.27l-1.1-.06-1,0h-13.7"/><path class="cls-2" d="M1069.13,3.38a20.11,20.11,0,0,0-9,1.48,16,16,0,0,0-3.48,2l-2.74,2.28-11,9.12h13.7c.29,0,.27,0,.39,0l.27,0a3.19,3.19,0,0,1,.54.06,6,6,0,0,1,2,.73c2.76-1.92,7.31-2.07,11.32.53.49.32,1,.69,1.47,1.08A16.89,16.89,0,0,1,1074,22c.88.9,1.67,2.19,2.42,3L1081,30.5V25a31.8,31.8,0,0,0-.2-3.85c-.11-.72-.2-1.45-.36-2.17s-.35-1.43-.56-2.14A24.21,24.21,0,0,0,1069.13,3.38Z"/><path class="cls-3" d="M1081,30.5,1076.4,25c-.75-.82-1.54-2.11-2.42-3a16.89,16.89,0,0,0-1.37-1.32c-.5-.39-1-.76-1.47-1.08-4-2.6-8.56-2.45-11.32-.53a5.92,5.92,0,0,1,2.62,3.28,4.77,4.77,0,0,0,.13.51c0,.17,0,.35.09.53a4.75,4.75,0,0,1,0,.54,9.78,9.78,0,0,1,0,1.08V30.5L1081,52.41Z"/><polyline class="cls-1" points="1080.97 52.41 1062.71 30.5 1062.71 52.41"/><polyline class="cls-1" points="1062.71 52.41 1080.97 74.31 1080.97 52.41"/><polygon class="cls-2" points="1080.97 74.31 1062.71 52.41 1062.71 74.31 1080.97 96.22 1080.97 74.31"/><polygon class="cls-3" points="1080.97 96.22 1062.71 74.31 1062.71 96.22 1080.97 118.14 1080.97 96.22"/><polyline class="cls-1" points="1080.97 118.14 1062.71 96.22 1062.71 118.14"/><polyline class="cls-1" points="1062.71 118.14 1080.97 140.04 1080.97 118.14"/><polygon class="cls-2" points="1080.97 140.04 1062.71 118.14 1062.71 140.04 1080.97 161.96 1080.97 140.04"/><polygon class="cls-3" points="1080.97 161.96 1062.71 140.04 1062.71 161.96 1080.97 183.87 1080.97 161.96"/><polyline class="cls-1" points="1080.97 183.87 1062.71 161.96 1062.71 183.87"/><polyline class="cls-1" points="1062.71 183.87 1080.97 205.78 1080.97 183.87"/><polygon class="cls-2" points="1080.97 205.78 1062.71 183.87 1062.71 205.78 1080.97 227.69 1080.97 205.78"/><polygon class="cls-3" points="1080.97 227.69 1062.71 205.78 1062.71 227.69 1080.97 249.59 1080.97 227.69"/><polyline class="cls-1" points="1080.97 249.59 1062.71 227.69 1062.71 249.59"/><polyline class="cls-1" points="1062.71 249.59 1080.97 271.5 1080.97 249.59"/><polygon class="cls-2" points="1080.97 271.5 1062.71 249.59 1062.71 271.5 1080.97 293.42 1080.97 271.5"/><polygon class="cls-3" points="1080.97 293.42 1062.71 271.5 1062.71 293.42 1080.97 315.32 1080.97 293.42"/><polyline class="cls-1" points="1080.97 315.32 1062.71 293.42 1062.71 315.32"/><polyline class="cls-1" points="1062.71 315.32 1080.97 337.24 1080.97 315.32"/><polygon class="cls-2" points="1080.97 337.24 1062.71 315.32 1062.71 337.24 1080.97 359.14 1080.97 337.24"/><polygon class="cls-3" points="1080.97 359.14 1062.71 337.24 1062.71 359.14 1080.97 381.06 1080.97 359.14"/><polyline class="cls-1" points="1080.97 381.06 1062.71 359.14 1062.71 381.06"/><polyline class="cls-1" points="1062.71 381.06 1080.97 402.96 1080.97 381.06"/><polygon class="cls-2" points="1080.97 402.96 1062.71 381.06 1062.71 402.96 1080.97 424.88 1080.97 402.96"/><polygon class="cls-3" points="1080.97 424.88 1062.71 402.96 1062.71 424.88 1080.97 446.79 1080.97 424.88"/><polyline class="cls-1" points="1080.97 446.79 1062.71 424.88 1062.71 446.79"/><polyline class="cls-1" points="1062.71 446.79 1080.97 468.69 1080.97 446.79"/><polygon class="cls-2" points="1080.97 468.69 1062.71 446.79 1062.71 468.69 1080.97 490.61 1080.97 468.69"/><polygon class="cls-3" points="1080.97 490.61 1062.71 468.69 1062.71 490.61 1080.97 512.51 1080.97 490.61"/><polyline class="cls-1" points="1080.97 512.51 1062.71 490.61 1062.71 512.51"/><polyline class="cls-1" points="1062.71 512.51 1080.97 534.42 1080.97 512.51"/><path class="cls-2" d="M1081,534.42l-18.26-21.91v21.91l9.13,11,4.56,5.48,2.28,2.74.57.68.29.34a3.17,3.17,0,0,1,.27.49c.35.7.71,1.44,1,2.21.07-.73.1-1.46.13-2.19l0-.51v-20.2Z"/><path class="cls-3" d="M1080.82,557.32c-.3-.77-.66-1.51-1-2.21a3.17,3.17,0,0,0-.27-.49l-.29-.34-.57-.68-2.28-2.74-4.56-5.48-9.13-11v20.2c0,.13,0,.12,0,.18s0,.36,0,.54a8.71,8.71,0,0,1,3.44,4.11,12,12,0,0,1,.73,6.4,15.84,15.84,0,0,1-3,7.1,20.34,20.34,0,0,1-7,5.87,24.19,24.19,0,0,0,24-21.5Z"/><path class="cls-1" d="M1056.84,578.82a20.34,20.34,0,0,0,7-5.87,15.84,15.84,0,0,0,3-7.1,12,12,0,0,0-.73-6.4,8.71,8.71,0,0,0-3.44-4.11,5.81,5.81,0,0,1-1.93,3.71,5.89,5.89,0,0,1-3.9,1.51"/></g></g></svg>